<?xml version="1.0" standalone="no"?>
<!DOCTYPE svg PUBLIC "-//W3C//DTD SVG 20010904//EN"
 "http://www.w3.org/TR/2001/REC-SVG-20010904/DTD/svg10.dtd">
<svg version="1.0" xmlns="http://www.w3.org/2000/svg"
 width="900.000000pt" height="900.000000pt" viewBox="0 0 900.000000 900.000000"
 preserveAspectRatio="xMidYMid meet">
<metadata>
Created by potrace 1.14, written by Peter Selinger 2001-2017
</metadata>
<g transform="translate(0.000000,900.000000) scale(0.100000,-0.100000)"
fill="#000000" stroke="none">
<path d="M4312 8987 c-27 -33 -86 -168 -103 -235 -45 -176 -10 -320 105 -432
l46 -44 36 34 c58 57 97 148 102 240 6 99 -9 162 -64 275 -52 108 -107 181
-122 162z"/>
<path d="M4696 8900 c-65 -68 -86 -111 -86 -174 0 -53 13 -89 46 -133 l25 -33
38 19 c112 58 143 183 78 324 -14 31 -30 57 -35 57 -5 0 -35 -27 -66 -60z"/>
<path d="M5096 8905 c-12 -90 36 -214 95 -245 16 -9 21 -7 29 15 24 64 -5 157
-71 229 l-46 51 -7 -50z"/>
<path d="M3940 8885 c-33 -72 -53 -164 -46 -213 11 -81 60 -153 130 -189 29
-15 31 -15 53 13 55 67 71 172 38 250 -20 48 -85 133 -124 162 l-30 22 -21
-45z"/>
<path d="M5528 8882 c-84 -67 -127 -144 -128 -225 0 -52 22 -117 40 -117 44 0
129 85 148 149 15 48 14 144 -1 193 l-12 38 -47 -38z"/>
<path d="M3463 8833 c-55 -57 -68 -116 -39 -172 26 -49 38 -53 78 -26 61 41
72 115 31 201 -9 19 -21 34 -26 34 -5 0 -25 -16 -44 -37z"/>
<path d="M3754 8832 c-141 -92 -203 -206 -177 -327 11 -52 40 -56 110 -15 107
61 151 169 144 348 0 17 -5 32 -9 32 -5 0 -35 -17 -68 -38z"/>
<path d="M5282 8745 c0 -16 2 -22 5 -12 2 9 2 23 0 30 -3 6 -5 -1 -5 -18z"/>
<path d="M5879 8733 c-76 -192 -38 -346 103 -419 36 -18 49 -10 80 50 31 60
30 156 -2 221 -25 52 -137 175 -158 175 -7 0 -17 -12 -23 -27z"/>
<path d="M2970 8689 c-68 -37 -141 -107 -168 -162 -32 -64 -37 -116 -17 -182
l16 -57 35 5 c52 9 121 53 154 99 33 46 48 89 57 164 6 55 -4 164 -15 164 -4
0 -32 -14 -62 -31z"/>
<path d="M4910 8699 c0 -22 63 -132 96 -169 64 -70 204 -120 204 -72 0 34 -50
119 -88 149 -64 52 -212 116 -212 92z"/>
<path d="M6233 8639 c-47 -60 -59 -145 -27 -200 26 -43 52 -43 81 0 35 51 26
134 -20 187 -19 21 -25 24 -34 13z"/>
<path d="M5292 8515 c-10 -717 -89 -1396 -233 -1995 -11 -46 -23 -88 -26 -92
-2 -5 -66 81 -142 189 -416 600 -729 1006 -956 1242 -84 88 -196 181 -216 181
-5 0 19 -35 54 -77 162 -198 388 -514 512 -718 108 -178 230 -443 213 -461 -4
-3 -26 1 -50 10 -112 43 -254 35 -365 -19 -127 -63 -193 -161 -201 -302 -4
-75 -2 -88 23 -139 41 -84 119 -135 237 -154 117 -18 214 24 281 122 51 76 27
190 -44 215 -79 28 -149 7 -149 -46 0 -34 17 -51 50 -51 14 0 31 5 38 12 16
16 15 60 0 77 -11 11 -9 12 7 3 55 -28 73 -88 42 -136 -25 -38 -116 -76 -182
-76 -138 0 -230 117 -185 234 16 43 88 113 139 135 151 65 310 19 458 -130
121 -123 200 -255 258 -435 162 -492 8 -992 -360 -1169 -108 -52 -175 -70
-314 -85 -270 -27 -679 62 -1086 235 -143 61 -436 208 -502 252 -62 41 -99
105 -89 156 13 70 26 198 37 350 l10 161 46 60 c59 80 143 223 182 313 33 75
91 246 91 266 0 7 -23 -31 -51 -83 -28 -52 -71 -122 -95 -156 -44 -61 -145
-164 -162 -164 -5 0 -13 71 -16 158 -10 222 -35 471 -71 713 -21 142 -76 431
-82 426 -2 -3 2 -65 8 -138 17 -181 17 -721 0 -879 -28 -273 -73 -500 -133
-670 -39 -110 -85 -200 -102 -200 -52 0 -309 213 -527 438 -225 232 -409 448
-747 878 -34 43 -24 24 69 -131 210 -352 468 -711 748 -1040 92 -108 437 -458
540 -547 l63 -55 -113 -12 c-111 -12 -363 -59 -444 -82 -89 -26 -345 21 -579
105 -55 19 -101 34 -103 32 -17 -17 191 -136 335 -191 39 -16 71 -29 70 -31
-2 -1 -57 -25 -123 -54 -228 -97 -435 -217 -638 -369 -126 -94 -139 -114 -32
-46 106 66 288 160 410 211 282 117 566 189 943 239 l33 4 -52 -46 c-90 -82
-129 -170 -129 -292 1 -158 111 -249 289 -239 92 6 137 27 157 73 32 78 8 165
-58 205 -43 26 -71 25 -105 -4 -22 -20 -28 -32 -27 -65 2 -66 44 -98 95 -71
25 14 25 30 -1 23 -41 -11 -69 49 -35 77 31 26 92 -23 102 -83 4 -29 1 -40
-20 -61 -61 -61 -226 -14 -273 76 -58 111 52 283 240 377 l88 43 166 -4 167
-5 75 -50 c291 -195 709 -403 1159 -578 295 -115 416 -259 381 -453 -23 -129
-90 -353 -127 -428 -50 -101 -111 -175 -213 -257 -88 -71 -239 -151 -349 -186
-139 -45 -214 -53 -561 -61 -206 -5 -350 -12 -375 -19 -145 -44 -211 -80 -358
-199 -236 -192 -242 -195 -433 -198 -198 -3 -349 -40 -464 -114 -45 -29 -106
-90 -159 -160 -76 -101 -285 -119 -520 -45 l-76 24 46 -42 c56 -51 136 -100
221 -135 52 -22 79 -26 153 -27 50 0 101 4 114 9 23 8 24 7 19 -30 -9 -63 -44
-144 -103 -237 -30 -48 -52 -87 -49 -87 3 0 24 13 47 29 85 59 165 161 216
273 l28 61 6 -61 c7 -66 33 -140 75 -211 l27 -46 7 124 c8 136 35 252 73 317
29 50 96 111 141 130 57 24 173 44 253 45 235 1 326 30 412 130 29 32 76 75
105 94 49 33 169 85 195 85 6 0 -12 -20 -39 -46 -63 -56 -127 -151 -149 -223
-20 -61 -61 -102 -159 -157 -82 -46 -260 -123 -311 -134 -49 -11 -165 6 -257
39 -33 11 -61 19 -64 17 -16 -17 97 -120 144 -132 13 -3 24 -8 24 -10 0 -2
-15 -25 -34 -51 -31 -44 -86 -145 -86 -158 0 -3 31 25 68 62 110 109 193 149
467 223 102 28 210 78 257 118 l36 32 7 -37 c3 -20 24 -76 46 -124 44 -97 47
-133 24 -244 -19 -89 -19 -89 10 -34 56 108 68 225 34 349 -11 41 -20 109 -21
150 -2 124 20 206 35 131 12 -57 48 -117 120 -197 47 -53 80 -102 95 -139 26
-67 52 -180 52 -233 0 -28 3 -33 10 -22 5 8 10 68 10 134 l0 119 43 -6 c23 -3
60 -2 82 2 l40 7 -47 21 c-107 49 -159 100 -243 239 -21 35 -35 71 -35 91 0
77 68 152 194 213 l61 29 75 -14 c159 -30 447 -16 618 28 28 8 52 13 52 11 0
-1 -30 -19 -67 -39 -37 -20 -93 -58 -126 -83 -32 -26 -68 -55 -80 -64 -46 -37
-139 -50 -323 -46 l-173 3 51 -32 c92 -58 230 -102 321 -103 26 0 47 -2 47 -5
0 -26 -53 -327 -62 -350 -17 -45 -91 -156 -124 -187 -62 -58 -292 -129 -474
-147 -114 -11 -210 -2 -340 33 -226 61 -440 15 -645 -139 -101 -76 -156 -89
-340 -82 -77 4 -160 11 -184 17 -24 6 -46 9 -48 6 -10 -9 138 -76 224 -102
116 -34 268 -37 356 -7 l59 20 -7 -21 c-48 -162 -57 -217 -61 -351 l-4 -140
29 110 c40 156 121 320 121 246 0 -29 75 -135 126 -176 25 -20 47 -35 49 -33
3 2 -7 31 -20 64 -35 86 -46 150 -43 250 l3 89 55 33 c128 76 296 97 468 58
120 -28 124 -33 74 -88 -76 -83 -211 -134 -379 -145 -51 -3 -93 -9 -93 -12 0
-11 112 -51 185 -66 39 -8 93 -15 122 -15 l52 0 -16 -52 c-55 -188 -195 -344
-375 -418 -32 -13 -57 -25 -55 -26 3 -3 210 22 260 31 l34 7 7 -49 c12 -77 37
-174 61 -228 l22 -50 5 135 c3 74 14 169 24 210 l17 75 17 -55 c23 -77 61
-147 113 -211 45 -55 161 -227 170 -251 2 -7 7 -11 10 -8 13 12 -37 151 -108
300 -85 180 -105 235 -105 291 0 122 81 322 170 422 63 70 117 103 220 133
132 38 239 98 341 192 31 29 59 52 62 52 3 0 8 -22 12 -49 4 -30 20 -70 41
-102 19 -29 34 -65 34 -79 0 -44 -45 -77 -127 -94 -93 -19 -124 -35 -70 -36
21 0 47 -5 58 -11 19 -10 19 -10 -1 -36 -11 -14 -29 -56 -39 -92 -22 -73 -34
-194 -20 -185 5 3 9 16 9 28 0 13 18 59 40 103 47 95 118 166 208 212 l62 31
75 -37 75 -37 0 -59 c0 -63 -17 -113 -56 -164 -28 -37 -26 -40 17 -17 47 24
108 84 130 127 l20 39 23 -21 c32 -30 74 -119 95 -201 32 -128 42 -94 16 55
-9 48 -20 96 -26 106 -13 25 -3 24 62 -5 75 -34 170 -49 249 -40 l65 8 -78 12
c-154 25 -221 58 -325 162 -85 84 -170 153 -243 194 -49 29 -87 77 -116 148
-14 35 -18 72 -18 160 0 106 3 124 38 230 26 76 54 138 83 182 52 76 163 186
279 275 83 62 278 193 289 193 3 0 6 -23 6 -51 0 -32 12 -87 31 -142 35 -103
33 -113 -33 -173 -33 -29 -45 -34 -88 -34 -59 0 -86 11 -167 67 -52 37 -63 41
-63 25 0 -26 45 -112 76 -145 l26 -28 -64 -67 c-133 -138 -219 -311 -218 -437
l0 -40 24 57 c46 113 145 244 238 315 30 24 58 43 61 43 3 0 -1 -19 -9 -42
-17 -48 -19 -166 -4 -217 13 -46 -6 -67 -82 -88 -32 -9 -56 -18 -54 -21 13
-13 90 -21 131 -13 l47 9 -4 -72 c-4 -51 -14 -90 -36 -139 -27 -58 -28 -66
-11 -57 25 14 93 106 113 154 9 21 16 66 16 100 1 114 28 323 48 369 14 32 40
61 86 97 37 29 74 66 84 84 l17 31 3 -40 c5 -54 -15 -269 -35 -380 -35 -196
-15 -414 51 -544 32 -62 32 -99 3 -188 -60 -185 -228 -353 -436 -437 -71 -28
-85 -31 -201 -31 l-125 0 -91 42 c-125 59 -189 80 -334 109 -123 24 -126 25
-173 72 -27 26 -65 72 -85 103 -20 31 -43 65 -50 75 -10 16 -11 8 -6 -46 8
-82 27 -135 64 -182 l30 -37 -23 -7 c-34 -10 -148 -89 -182 -125 -23 -25 -26
-30 -10 -24 158 61 291 78 422 51 85 -17 153 -41 153 -54 0 -4 -26 -25 -56
-47 -105 -75 -196 -197 -229 -307 -23 -78 -18 -88 12 -27 15 29 54 81 87 114
l59 60 19 -55 c10 -30 26 -70 34 -89 23 -49 92 -119 139 -143 l40 -20 -38 39
c-48 50 -77 126 -77 203 0 52 4 64 32 95 67 77 146 92 300 55 113 -27 197 -26
312 5 l29 8 -7 -38 c-18 -96 -94 -194 -210 -271 l-60 -39 37 -3 c66 -6 147 25
196 74 l44 44 -7 -64 c-6 -64 -36 -167 -63 -219 -23 -45 -9 -42 35 8 53 60 97
138 124 220 17 52 25 65 37 60 26 -10 151 -19 151 -10 0 4 -29 39 -65 77 -36
39 -65 77 -65 85 0 8 12 40 27 71 19 42 55 85 138 167 115 113 151 159 201
255 l28 55 13 -65 c8 -36 16 -135 19 -220 5 -134 3 -169 -16 -260 -38 -184
-112 -337 -219 -448 -27 -28 -46 -52 -42 -52 5 0 42 22 82 48 195 128 319 345
344 604 6 64 8 67 26 57 29 -15 98 -108 146 -196 l43 -78 0 41 c0 126 -160
518 -344 842 -20 35 -36 66 -36 68 0 2 17 -4 38 -14 20 -11 69 -30 107 -42 84
-27 138 -63 194 -127 47 -53 96 -149 106 -208 15 -83 25 -69 20 25 -7 98 -38
230 -55 230 -6 0 -10 4 -10 10 0 14 58 1 117 -26 65 -31 138 -110 147 -159 9
-45 3 -64 -45 -145 -21 -36 -46 -93 -55 -127 -16 -60 -16 -71 2 -235 10 -95
17 -193 16 -217 -3 -52 -42 -155 -89 -234 -19 -32 -33 -60 -30 -63 10 -10 124
125 151 180 l29 57 51 -48 c28 -26 43 -39 34 -28 -63 76 -92 217 -86 420 4
130 6 146 37 222 18 46 36 85 40 88 8 4 17 -34 66 -285 25 -126 83 -229 189
-336 50 -50 102 -97 115 -104 14 -7 -6 16 -42 50 -78 72 -156 184 -186 266
-24 61 -41 167 -33 196 4 18 6 18 31 -5 51 -48 169 -117 237 -137 141 -43 195
-87 278 -225 30 -51 36 -56 36 -34 0 41 -39 160 -66 201 -29 45 -107 99 -186
129 l-56 21 34 45 c23 31 34 55 34 79 l0 35 -27 -20 c-32 -23 -99 -40 -159
-41 -37 0 -47 6 -93 52 -58 58 -91 119 -91 167 0 44 -27 146 -51 193 -11 21
-17 38 -14 38 2 0 41 -13 86 -30 156 -57 290 -149 423 -291 156 -166 188 -197
248 -232 86 -51 198 -85 309 -93 100 -8 116 4 32 25 -73 19 -187 75 -248 123
-31 24 -74 70 -97 103 l-40 60 104 6 c72 4 117 12 149 26 55 24 76 48 32 36
-47 -13 -194 -7 -263 11 -87 24 -110 37 -203 118 -260 224 -588 369 -1010 444
-116 21 -186 57 -230 120 -44 63 -48 100 -25 228 16 93 19 144 16 315 l-4 203
38 -5 c62 -8 85 -29 99 -91 12 -53 5 -120 -17 -181 -6 -18 -4 -17 19 4 36 33
77 117 77 158 0 41 8 41 47 0 34 -36 57 -77 84 -151 l18 -51 0 45 c2 170 -123
346 -284 400 -93 31 -137 75 -164 165 -22 73 -52 237 -46 244 8 8 183 -53 271
-94 138 -64 230 -128 329 -229 64 -64 102 -113 130 -166 36 -68 40 -82 40
-150 0 -61 -6 -85 -27 -130 -54 -110 -163 -207 -323 -290 -66 -33 -75 -40 -50
-40 41 0 183 26 256 46 33 9 61 15 62 13 1 -2 17 -34 36 -72 18 -37 66 -104
105 -150 100 -114 115 -125 82 -60 -37 75 -64 182 -76 307 -10 109 -10 110 17
155 25 44 26 44 42 24 9 -11 34 -44 56 -72 66 -86 131 -127 299 -191 83 -32
163 -62 178 -68 43 -18 108 -82 134 -135 33 -64 31 -140 -4 -145 -33 -5 -114
25 -160 58 -23 17 -46 45 -58 71 -18 43 -18 43 -22 15 -2 -15 -1 -39 3 -53 7
-29 75 -105 128 -144 33 -24 35 -28 19 -34 -20 -6 -152 18 -199 36 -48 18 -36
0 27 -40 76 -49 148 -66 250 -57 41 3 87 9 103 12 25 6 27 4 27 -27 0 -19 -11
-53 -24 -76 -22 -38 -22 -41 -5 -30 11 7 32 30 47 51 25 37 27 46 27 145 -1
72 -6 120 -17 148 -8 24 -12 43 -8 43 16 0 143 -104 209 -171 190 -193 315
-479 340 -779 l7 -85 12 53 c17 74 14 199 -6 319 -10 57 -16 103 -14 103 2 0
16 -8 30 -19 57 -40 283 -141 315 -141 6 0 -13 14 -42 31 -30 18 -98 74 -150
127 l-96 95 40 18 c49 23 104 24 214 4 47 -8 86 -13 89 -11 2 2 -4 16 -14 31
-28 43 -94 75 -176 84 -105 12 -203 64 -336 178 l-34 28 259 0 259 0 66 -33
c36 -19 88 -54 117 -79 51 -45 52 -45 45 -17 -11 47 -44 126 -70 171 -27 47
-29 53 -13 53 13 0 115 78 148 114 l25 27 -42 -15 c-131 -46 -511 -96 -737
-96 l-120 0 -77 71 c-43 39 -78 74 -78 79 0 23 338 116 515 141 147 21 355 17
448 -9 101 -29 149 -53 208 -109 84 -78 127 -207 113 -340 l-5 -58 25 40 c48
75 46 187 -5 294 l-29 63 43 -9 c23 -4 83 -8 132 -7 76 0 99 4 152 28 33 15
74 41 89 57 31 33 28 35 -20 15 -56 -24 -176 -39 -249 -32 -93 9 -204 47 -307
107 -155 89 -271 119 -467 119 -110 0 -193 -9 -293 -32 -12 -2 -15 8 -14 53 1
70 55 186 139 303 31 43 55 80 53 81 -5 5 -99 -61 -151 -105 -26 -23 -66 -66
-88 -96 l-41 -53 -47 38 c-52 42 -105 74 -138 83 -30 8 -29 4 6 -40 17 -20 46
-63 65 -96 73 -122 68 -214 -12 -235 -96 -25 -198 -33 -344 -28 -179 6 -266
26 -368 87 -116 68 -185 157 -244 314 -104 276 -300 517 -572 704 -17 12 -17
12 6 7 126 -30 400 -55 605 -55 111 0 172 -25 245 -100 44 -45 50 -56 50 -93
0 -90 -75 -149 -216 -171 -73 -11 -75 -12 -57 -29 19 -16 77 -39 134 -51 l25
-5 -27 -83 c-15 -46 -30 -101 -33 -123 l-6 -40 14 31 c15 33 73 104 86 104 4
0 10 -17 13 -37 7 -39 72 -182 100 -218 13 -16 13 -9 -3 42 -10 34 -24 108
-31 166 l-11 104 55 114 c30 63 58 124 62 137 9 31 24 24 63 -31 56 -78 73
-144 82 -312 6 -131 11 -159 35 -217 15 -38 29 -68 31 -68 2 0 3 24 3 53 -1
28 2 137 6 240 7 167 10 187 24 181 58 -26 157 -54 207 -60 l59 -6 -35 23
c-226 144 -301 208 -398 333 l-46 59 30 -6 c59 -12 143 -49 225 -99 175 -107
233 -137 340 -172 127 -42 277 -66 425 -66 l102 0 31 -35 c25 -29 31 -45 31
-80 0 -51 -28 -132 -75 -215 -33 -59 -33 -59 -8 -49 41 15 66 30 126 76 l57
44 49 -44 c52 -46 158 -106 226 -127 69 -22 128 -57 183 -109 59 -56 66 -47
28 34 -26 57 -91 119 -162 155 -70 36 -172 141 -233 240 -61 101 -61 101 76
71 380 -85 621 -290 692 -590 l18 -76 17 54 c24 81 21 192 -9 295 -14 47 -25
88 -25 91 0 2 21 11 48 18 76 23 120 44 194 93 71 48 82 63 32 44 -50 -19
-176 -40 -285 -46 l-107 -7 -68 56 c-203 163 -457 277 -691 308 -54 7 -134 9
-208 5 -341 -19 -337 -19 -401 2 -36 11 -119 56 -197 106 -233 148 -409 231
-592 276 -72 18 -116 22 -219 21 -71 0 -189 6 -262 14 -486 54 -598 160 -611
575 -10 307 58 602 164 721 142 157 415 327 671 419 340 121 784 176 1239 153
l212 -10 75 -36 c92 -44 143 -94 190 -187 58 -117 49 -200 -28 -268 -96 -84
-349 -97 -383 -19 -25 57 30 139 101 153 71 13 105 -10 92 -61 -5 -21 -12 -25
-43 -25 -34 0 -36 -1 -21 -16 21 -21 65 -21 86 -1 21 21 18 94 -5 120 -59 64
-145 60 -219 -10 -41 -37 -55 -87 -42 -146 19 -91 111 -137 276 -137 120 0
174 16 238 73 61 53 94 124 94 199 0 116 -35 220 -97 288 l-38 43 45 -7 c524
-82 1031 -204 1432 -345 47 -17 90 -31 94 -31 15 0 -139 92 -261 156 -444 233
-1011 401 -1610 479 -117 15 -440 44 -500 45 -27 0 -25 3 30 33 326 177 613
502 840 951 80 159 160 344 152 353 -3 2 -24 -31 -47 -74 -149 -273 -400 -554
-654 -732 -33 -22 -63 -41 -67 -41 -4 0 3 24 16 54 43 97 56 186 60 396 2 107
1 179 -1 160 -74 -610 -464 -1039 -1018 -1121 -149 -22 -489 -27 -575 -8 -44
9 -55 17 -88 61 -66 90 -69 129 -29 378 53 332 116 1052 116 1336 l0 102 64
123 c35 68 85 174 109 234 51 125 147 381 147 393 0 4 -15 -19 -33 -51 -40
-71 -137 -201 -215 -286 l-59 -65 -8 445 c-4 244 -11 494 -15 554 l-7 110 -1
-130z"/>
<path d="M3177 8559 c16 -143 77 -285 156 -363 79 -78 132 -100 247 -100 l95
-1 -1 92 c0 82 -4 98 -33 157 -64 129 -224 226 -418 252 l-51 6 5 -43z"/>
<path d="M6485 8538 c-107 -64 -155 -138 -155 -241 0 -67 10 -76 62 -54 54 23
104 72 128 128 22 53 40 200 24 198 -5 0 -31 -14 -59 -31z"/>
<path d="M2581 8516 c-65 -94 -89 -223 -57 -300 8 -19 31 -52 52 -75 l37 -42
29 28 c17 15 41 47 55 71 48 82 21 236 -60 336 l-24 29 -32 -47z"/>
<path d="M5681 8544 c-111 -30 -207 -100 -246 -179 -20 -42 -27 -146 -12 -197
7 -26 11 -28 60 -28 176 0 287 139 287 360 0 68 0 68 -89 44z"/>
<path d="M4649 8505 c-64 -20 -123 -86 -144 -160 -18 -62 -16 -67 34 -84 131
-43 256 22 330 174 18 37 30 69 26 73 -14 14 -200 12 -246 -3z"/>
<path d="M3832 8463 c-106 -150 -112 -299 -17 -412 15 -17 32 -31 39 -31 17 0
70 58 91 99 25 50 30 129 12 192 -17 55 -84 179 -98 179 -4 0 -16 -12 -27 -27z"/>
<path d="M4946 8398 c-3 -13 -6 -45 -6 -71 0 -146 76 -237 200 -237 l48 0 11
44 c24 95 8 152 -59 209 -42 36 -132 77 -169 77 -11 0 -21 -9 -25 -22z"/>
<path d="M4087 8273 c-78 -280 -19 -498 164 -605 35 -21 71 -38 81 -38 23 0
68 97 81 176 22 130 -27 263 -145 389 -60 64 -144 135 -161 135 -2 0 -12 -26
-20 -57z"/>
<path d="M2216 8298 c-64 -99 -112 -266 -101 -354 13 -108 87 -210 190 -264
l48 -24 35 39 c19 22 48 68 64 103 27 56 30 70 26 140 -5 107 -43 185 -139
287 -91 95 -103 103 -123 73z"/>
<path d="M6583 8291 c-28 -9 -67 -29 -86 -43 -34 -27 -97 -131 -85 -143 4 -4
33 -9 66 -12 69 -6 118 7 180 49 40 28 132 138 132 159 0 16 -152 9 -207 -10z"/>
<path d="M2888 8251 c-159 -51 -241 -159 -224 -295 l7 -56 46 0 c74 0 124 20
175 71 55 55 88 145 88 240 0 68 -1 69 -92 40z"/>
<path d="M3140 8223 c-95 -108 -120 -221 -69 -313 36 -65 49 -69 97 -32 63 50
85 107 80 200 -3 55 -12 94 -31 135 -14 31 -28 57 -31 57 -2 0 -23 -21 -46
-47z"/>
<path d="M6000 8236 c-121 -27 -196 -77 -248 -166 -23 -38 -27 -59 -30 -141
l-4 -96 32 -12 c42 -14 165 -13 207 2 55 21 122 75 154 124 34 55 74 174 82
251 l6 52 -72 -1 c-40 -1 -97 -7 -127 -13z"/>
<path d="M4491 8171 c-13 -8 -12 -25 7 -119 77 -390 279 -574 588 -532 46 6
91 13 98 16 20 7 28 118 16 205 -35 248 -222 393 -552 429 -118 12 -139 12
-157 1z"/>
<path d="M7118 8128 c-46 -60 -80 -140 -85 -199 -7 -68 16 -125 72 -179 31
-30 37 -32 59 -22 14 6 39 30 56 53 56 77 62 152 19 248 -20 45 -79 130 -90
131 -4 0 -18 -15 -31 -32z"/>
<path d="M6801 8109 c-28 -79 -3 -165 58 -207 46 -30 63 -25 80 24 22 62 8
108 -49 165 -27 27 -56 49 -64 49 -8 0 -19 -14 -25 -31z"/>
<path d="M5397 7983 c8 -58 35 -105 72 -130 49 -33 54 -30 49 29 -5 47 -10 57
-53 95 -60 54 -76 56 -68 6z"/>
<path d="M6295 7984 c-129 -67 -174 -164 -125 -271 18 -41 20 -42 57 -36 62 9
118 47 142 96 32 67 26 229 -9 234 -8 1 -37 -9 -65 -23z"/>
<path d="M3338 7980 c-71 -21 -126 -77 -142 -142 -7 -30 10 -40 69 -40 71 0
120 30 170 105 50 74 47 87 -17 86 -29 0 -65 -4 -80 -9z"/>
<path d="M1820 7959 c0 -30 44 -111 81 -147 45 -44 131 -66 168 -43 18 12 8
68 -22 112 -26 41 -112 85 -179 93 -43 5 -48 4 -48 -15z"/>
<path d="M1655 7888 c-29 -62 -31 -107 -9 -154 15 -32 48 -64 66 -64 4 0 20
18 34 40 22 33 26 48 22 89 -5 52 -53 141 -76 141 -7 0 -24 -24 -37 -52z"/>
<path d="M6622 7867 c-139 -121 -226 -248 -267 -391 -21 -73 -16 -217 10 -291
23 -67 76 -155 94 -155 25 0 122 62 180 116 63 58 109 135 137 229 22 72 24
258 5 350 -16 75 -62 215 -70 215 -3 0 -43 -33 -89 -73z"/>
<path d="M7422 7889 c-72 -41 -112 -104 -112 -175 0 -29 5 -64 11 -78 11 -24
12 -24 57 -11 57 18 97 56 117 113 22 68 17 182 -9 182 -6 0 -35 -14 -64 -31z"/>
<path d="M2717 7830 c-78 -24 -124 -62 -153 -124 -28 -59 -31 -101 -8 -110 9
-3 44 -6 78 -6 51 0 70 5 107 28 58 38 96 83 131 159 15 35 28 65 28 68 0 12
-130 2 -183 -15z"/>
<path d="M3650 7801 c0 -102 45 -218 102 -266 41 -34 79 -51 139 -60 43 -6 47
-5 52 17 23 82 -11 188 -79 247 -38 34 -133 82 -186 95 -27 6 -28 5 -28 -33z"/>
<path d="M3403 7705 c11 -110 73 -175 165 -175 47 0 62 14 62 57 0 96 -90 173
-204 173 l-29 0 6 -55z"/>
<path d="M5727 7745 c-44 -15 -74 -41 -100 -84 -17 -29 -17 -30 8 -59 73 -87
187 -81 295 16 43 38 44 41 28 58 -23 26 -115 70 -158 77 -19 4 -52 0 -73 -8z"/>
<path d="M1416 7713 c34 -237 145 -424 297 -497 40 -19 84 -37 98 -40 24 -5
27 -2 33 27 9 53 -11 156 -45 225 -35 72 -145 191 -218 237 -53 33 -153 85
-163 85 -4 0 -4 -17 -2 -37z"/>
<path d="M3085 7656 c-147 -307 -75 -536 200 -627 l60 -20 38 42 c20 23 52 71
70 108 28 57 32 76 32 146 0 96 -27 162 -98 241 -55 61 -230 184 -261 184 -3
0 -21 -33 -41 -74z"/>
<path d="M7660 7692 c-49 -14 -102 -48 -115 -73 -8 -15 -15 -46 -15 -69 0 -38
2 -40 30 -40 44 0 87 25 105 61 21 39 17 128 -5 121z"/>
<path d="M6952 7656 c-21 -47 -34 -147 -30 -225 6 -104 42 -170 119 -223 86
-58 94 -58 125 4 38 74 43 155 14 231 -24 63 -104 158 -175 207 l-42 29 -11
-23z"/>
<path d="M1853 7642 c-35 -8 -63 -18 -63 -21 0 -10 97 -71 158 -99 49 -23 70
-26 157 -27 78 0 110 4 143 19 23 10 42 23 42 27 0 16 -91 81 -140 100 -62 24
-205 24 -297 1z"/>
<path d="M4470 7603 c-18 -20 -39 -51 -46 -69 -18 -42 -17 -112 0 -144 l14
-24 35 35 c44 44 61 102 52 181 -4 32 -11 58 -15 58 -4 0 -22 -17 -40 -37z"/>
<path d="M1328 7553 c-57 -65 -118 -227 -118 -314 1 -76 70 -212 122 -240 16
-9 25 -4 54 28 75 80 103 174 84 281 -11 70 -77 217 -109 246 -16 15 -19 15
-33 -1z"/>
<path d="M6118 7500 c-58 -41 -119 -114 -138 -165 -19 -49 -14 -137 10 -189
12 -25 26 -48 30 -51 4 -3 25 2 46 11 103 43 155 124 155 242 0 68 -26 192
-41 192 -4 0 -32 -18 -62 -40z"/>
<path d="M2624 7498 c-65 -45 -98 -106 -90 -172 3 -27 7 -51 10 -53 10 -10 74
19 99 45 37 39 57 93 57 157 0 66 -8 68 -76 23z"/>
<path d="M7425 7518 c-47 -27 -100 -75 -127 -117 -31 -49 -38 -120 -17 -180 9
-26 15 -30 33 -25 68 21 128 79 145 141 12 43 14 115 5 162 -7 34 -10 36 -39
19z"/>
<path d="M2861 7498 c-57 -90 -67 -171 -28 -228 33 -49 52 -58 76 -36 58 52
65 134 20 224 -33 67 -46 74 -68 40z"/>
<path d="M4650 7484 c-123 -70 -161 -170 -101 -267 21 -34 23 -35 59 -25 89
25 139 99 128 192 -4 28 -15 68 -24 88 l-17 38 -45 -26z"/>
<path d="M5600 7468 c-47 -13 -119 -67 -120 -90 0 -12 64 -28 115 -28 29 0 72
7 96 15 47 17 139 73 139 85 0 10 -105 30 -154 29 -23 0 -57 -5 -76 -11z"/>
<path d="M7703 7405 c-160 -166 -186 -335 -76 -487 19 -27 41 -48 49 -48 25 0
89 46 132 96 69 78 88 183 57 306 -18 66 -54 152 -78 183 -16 19 -18 18 -84
-50z"/>
<path d="M1915 7395 c-19 -145 43 -276 149 -320 52 -22 60 -12 64 80 4 66 1
79 -24 125 -29 53 -96 120 -152 153 l-31 17 -6 -55z"/>
<path d="M3555 7418 c-8 -21 48 -178 90 -254 57 -102 154 -198 244 -242 73
-35 80 -37 181 -36 62 1 123 7 150 16 l45 14 -3 66 c-4 116 -62 242 -143 312
-102 87 -225 126 -421 133 -114 5 -139 3 -143 -9z"/>
<path d="M1041 7333 c-15 -51 -14 -87 3 -126 12 -31 68 -87 85 -87 27 0 41
112 20 153 -13 26 -80 97 -91 97 -4 0 -12 -17 -17 -37z"/>
<path d="M4869 7302 c-103 -79 -159 -180 -144 -261 9 -48 45 -108 93 -155 l40
-38 46 17 c55 21 130 84 153 129 25 48 21 139 -10 209 -31 69 -86 147 -103
147 -7 0 -41 -22 -75 -48z"/>
<path d="M2690 7259 c-84 -50 -120 -103 -120 -175 l0 -47 34 6 c46 7 83 33
110 76 22 34 46 112 46 145 0 22 -29 20 -70 -5z"/>
<path d="M5615 7256 c-96 -30 -175 -91 -201 -153 -31 -74 -5 -213 40 -213 48
0 129 32 167 67 59 53 82 156 63 276 -7 41 -10 42 -69 23z"/>
<path d="M5783 7233 c-19 -46 -21 -120 -4 -151 14 -25 67 -62 91 -62 23 0 50
53 50 97 0 21 -9 52 -19 69 -18 30 -80 84 -95 84 -4 0 -14 -17 -23 -37z"/>
<path d="M2220 7210 c-13 -26 -25 -71 -28 -106 -4 -52 -1 -68 19 -103 12 -23
28 -40 33 -38 18 5 56 89 56 122 0 39 -25 124 -43 150 -14 18 -16 17 -37 -25z"/>
<path d="M8054 7216 c-70 -33 -104 -79 -104 -142 0 -72 8 -80 64 -64 75 21
116 87 116 188 0 49 -6 51 -76 18z"/>
<path d="M915 7160 c-9 -51 1 -93 26 -116 20 -18 21 -18 36 1 19 26 12 85 -17
125 -12 16 -25 30 -30 30 -4 0 -11 -18 -15 -40z"/>
<path d="M2898 7123 c-90 -122 -109 -234 -58 -333 30 -58 39 -59 85 -8 68 75
83 178 45 299 -30 96 -32 98 -72 42z"/>
<path d="M6864 7083 c-65 -98 -87 -164 -82 -252 3 -66 7 -83 37 -129 18 -29
47 -62 63 -73 l30 -21 40 38 c110 106 115 260 14 418 -54 85 -58 85 -102 19z"/>
<path d="M1654 7088 c10 -50 65 -172 104 -232 120 -182 286 -270 471 -251 l64
7 -7 52 c-8 71 -39 157 -75 210 -90 130 -271 219 -479 235 l-84 7 6 -28z"/>
<path d="M1060 7072 c-7 -15 -15 -59 -18 -98 -3 -56 0 -80 16 -116 24 -55 86
-107 110 -92 19 13 40 68 41 110 2 63 -49 158 -108 202 l-28 21 -13 -27z"/>
<path d="M1533 7068 c-82 -91 -90 -188 -19 -257 31 -30 36 -32 55 -19 88 62
91 169 8 271 l-23 27 -21 -22z"/>
<path d="M6154 7076 c-33 -14 -66 -55 -78 -94 -6 -19 -2 -25 28 -37 46 -20 72
-19 122 4 49 22 121 108 104 125 -17 17 -141 18 -176 2z"/>
<path d="M7240 6993 c0 -166 70 -260 207 -279 58 -7 61 -5 72 68 12 71 -8 133
-56 180 -41 40 -126 83 -185 93 l-38 7 0 -69z"/>
<path d="M3460 6978 c0 -26 61 -118 113 -171 74 -77 142 -109 239 -115 97 -6
103 3 59 93 -58 117 -167 178 -358 200 -40 4 -53 2 -53 -7z"/>
<path d="M720 6948 c0 -26 34 -86 59 -105 9 -7 31 -13 49 -13 29 0 32 3 32 29
0 40 -43 88 -88 101 -50 14 -52 13 -52 -12z"/>
<path d="M3220 6934 c-113 -30 -184 -111 -178 -204 3 -45 3 -45 43 -48 54 -5
109 13 149 48 35 31 80 121 91 183 7 36 6 37 -21 36 -16 0 -54 -7 -84 -15z"/>
<path d="M6574 6895 c-13 -71 22 -130 84 -141 92 -18 80 123 -14 162 -51 21
-62 18 -70 -21z"/>
<path d="M1314 6858 c-25 -55 -29 -75 -29 -153 0 -86 2 -92 33 -135 18 -26 46
-54 63 -64 l31 -18 24 28 c59 73 67 172 19 269 -24 51 -90 135 -104 135 -5 0
-21 -28 -37 -62z"/>
<path d="M2647 6905 c-15 -52 -17 -128 -6 -185 12 -61 60 -149 86 -158 21 -6
35 49 31 123 -3 74 -33 150 -81 210 -22 27 -25 27 -30 10z"/>
<path d="M5664 6886 c-195 -45 -294 -181 -294 -406 l0 -70 38 -19 c105 -53
245 -68 343 -36 133 44 265 251 294 461 l6 51 -58 12 c-91 19 -259 23 -329 7z"/>
<path d="M6341 6864 c-116 -31 -215 -110 -239 -192 -7 -22 -12 -63 -12 -92 l0
-53 63 5 c89 7 156 45 206 116 30 43 71 157 71 200 0 37 -7 38 -89 16z"/>
<path d="M7908 6856 c-73 -20 -122 -58 -152 -118 l-27 -53 28 -12 c42 -18 122
-15 169 6 53 24 106 71 144 129 l31 47 -23 7 c-38 10 -120 8 -170 -6z"/>
<path d="M8290 6856 c-85 -22 -130 -72 -130 -143 0 -67 6 -73 64 -73 97 0 155
67 156 178 0 59 -5 61 -90 38z"/>
<path d="M686 6761 c-17 -6 -12 -14 40 -67 72 -74 138 -106 215 -107 73 0 83
6 65 42 -23 44 -89 97 -142 114 -61 19 -153 29 -178 18z"/>
<path d="M1645 6710 c-82 -129 -104 -295 -54 -400 26 -54 72 -108 117 -138 21
-14 25 -13 51 12 16 15 41 53 57 84 24 48 28 70 29 138 0 75 -3 86 -42 165
-23 46 -62 106 -86 134 l-44 49 -28 -44z"/>
<path d="M6565 6649 c14 -84 59 -155 116 -184 28 -15 104 -20 133 -9 38 15 4
140 -49 182 -34 27 -115 52 -168 52 l-39 0 7 -41z"/>
<path d="M7155 6671 c-111 -27 -167 -97 -150 -187 l6 -36 55 4 c86 7 129 59
141 168 6 65 7 65 -52 51z"/>
<path d="M7277 6673 c-10 -9 -9 -32 4 -76 15 -56 41 -77 93 -77 42 0 44 1 50
35 10 49 -14 89 -64 109 -43 17 -72 20 -83 9z"/>
<path d="M3478 6632 c-33 -4 -34 -11 -8 -63 50 -97 134 -159 217 -159 98 0
110 16 74 96 -40 88 -161 142 -283 126z"/>
<path d="M3145 6610 c-128 -19 -222 -94 -245 -195 -9 -39 -1 -45 65 -45 93 0
184 67 243 178 41 76 40 77 -63 62z"/>
<path d="M7868 6600 c-70 -12 -151 -53 -198 -100 -44 -44 -106 -161 -97 -184
7 -19 114 -67 169 -75 114 -19 231 25 332 124 58 56 136 161 136 183 0 11 -91
37 -180 52 -73 11 -94 11 -162 0z"/>
<path d="M8437 6529 c-147 -22 -247 -114 -247 -228 0 -44 10 -51 73 -51 105 0
177 50 232 163 19 40 36 83 37 97 3 30 -9 32 -95 19z"/>
<path d="M775 6505 c-22 -7 -53 -18 -70 -25 l-30 -12 50 -44 c28 -25 84 -62
124 -82 67 -33 83 -37 150 -37 60 0 86 5 124 24 27 13 51 30 54 37 9 25 -55
92 -119 123 -55 28 -70 31 -152 30 -50 -1 -109 -7 -131 -14z"/>
<path d="M6290 6482 c-97 -41 -128 -59 -183 -111 -91 -85 -120 -200 -82 -329
18 -60 24 -62 118 -37 150 39 225 142 235 321 5 92 -3 184 -16 183 -4 0 -36
-12 -72 -27z"/>
<path d="M2017 6426 c-60 -81 -102 -174 -117 -255 -23 -126 29 -254 135 -335
l35 -27 56 53 c31 29 68 75 83 103 23 45 26 61 26 150 -1 81 -5 111 -24 159
-24 60 -118 207 -136 213 -6 2 -32 -26 -58 -61z"/>
<path d="M3346 6380 c-96 -193 -61 -355 95 -436 30 -15 32 -15 60 12 17 16 41
52 56 81 50 103 20 221 -85 334 -84 91 -85 91 -126 9z"/>
<path d="M4593 6354 c4 -38 12 -55 36 -76 17 -15 40 -28 51 -28 16 0 20 7 20
36 0 56 -27 89 -89 109 -23 7 -24 6 -18 -41z"/>
<path d="M6539 6358 c-17 -24 -45 -72 -62 -108 -27 -56 -31 -77 -31 -150 -1
-65 3 -93 18 -120 23 -43 59 -87 93 -113 l25 -20 49 49 c85 84 108 182 69 306
-19 63 -94 188 -117 195 -7 3 -26 -15 -44 -39z"/>
<path d="M7110 6368 c-125 -54 -178 -152 -136 -253 16 -38 30 -41 81 -22 83
32 120 91 119 192 -1 99 -7 107 -64 83z"/>
<path d="M477 6350 c-71 -28 -82 -38 -60 -62 50 -56 156 -89 235 -74 19 3 49
19 68 35 l35 29 -29 31 c-16 16 -44 37 -61 46 -44 20 -129 18 -188 -5z"/>
<path d="M8611 6329 c-161 -81 -248 -220 -227 -363 8 -52 20 -56 89 -32 96 35
162 110 197 224 20 65 28 202 12 202 -5 0 -37 -14 -71 -31z"/>
<path d="M5416 6278 c-22 -13 -53 -40 -70 -62 l-31 -38 42 -38 c94 -83 200
-76 323 21 l53 42 -24 20 c-89 72 -222 97 -293 55z"/>
<path d="M3045 6284 c-109 -23 -201 -64 -259 -115 -55 -48 -96 -141 -103 -232
-7 -92 -6 -92 112 -92 65 1 91 6 135 26 117 55 205 192 239 372 l8 47 -56 -1
c-31 -1 -65 -3 -76 -5z"/>
<path d="M905 6231 c-76 -21 -255 -106 -255 -121 0 -16 91 -63 187 -96 206
-71 376 -49 504 65 l43 38 -29 27 c-17 14 -63 43 -104 63 -69 35 -81 38 -175
40 -76 2 -119 -2 -171 -16z"/>
<path d="M3680 6231 c0 -23 46 -152 72 -205 38 -75 119 -161 181 -193 60 -30
147 -47 199 -38 l41 7 -5 69 c-10 128 -85 231 -219 298 -72 36 -269 81 -269
62z"/>
<path d="M4479 6192 c31 -108 120 -193 200 -191 14 0 42 6 61 12 32 11 35 15
31 47 -4 44 -21 78 -58 112 -40 38 -74 48 -163 48 l-79 0 8 -28z"/>
<path d="M7652 6159 c-76 -13 -143 -51 -196 -111 l-47 -53 28 -23 c64 -52 112
-67 213 -67 87 0 101 3 163 33 66 33 187 124 187 142 0 5 -35 22 -77 38 -70
27 -99 34 -193 46 -14 2 -49 0 -78 -5z"/>
<path d="M8199 6128 c-118 -80 -154 -171 -109 -276 26 -60 35 -63 108 -26 73
36 102 87 102 178 0 68 -16 152 -30 161 -5 3 -37 -14 -71 -37z"/>
<path d="M5771 6085 c-155 -34 -273 -91 -350 -168 -111 -112 -142 -250 -100
-443 11 -49 14 -52 48 -58 158 -26 313 18 409 115 98 99 142 227 149 432 l5
137 -48 -1 c-27 0 -78 -7 -113 -14z"/>
<path d="M4355 6038 c-23 -57 -31 -165 -15 -212 20 -63 98 -136 143 -136 7 0
24 19 37 43 35 61 34 146 -2 207 -26 46 -119 140 -136 140 -6 0 -18 -19 -27
-42z"/>
<path d="M535 5997 c-18 -165 47 -283 179 -327 46 -15 50 -10 66 68 16 75 -6
144 -66 212 -44 48 -134 110 -161 110 -7 0 -14 -25 -18 -63z"/>
<path d="M189 5979 c-3 -160 18 -237 77 -288 49 -44 85 -60 148 -67 54 -7 56
-6 66 22 35 92 20 189 -42 259 -41 46 -153 109 -215 121 l-33 7 -1 -54z"/>
<path d="M916 5909 c-56 -87 -75 -194 -43 -255 21 -40 84 -96 104 -92 9 2 29
20 46 40 63 79 42 201 -52 292 l-39 38 -16 -23z"/>
<path d="M1337 5922 c-58 -3 -59 -4 -52 -29 20 -83 92 -181 156 -213 43 -23
127 -27 179 -9 31 11 32 13 26 56 -18 137 -126 204 -309 195z"/>
<path d="M6051 5894 c-74 -94 -103 -242 -63 -320 11 -21 36 -55 56 -73 l36
-35 36 35 c20 18 44 51 55 71 26 50 25 141 -1 212 -22 56 -74 136 -89 136 -5
0 -19 -12 -30 -26z"/>
<path d="M6272 5881 c-30 -99 -4 -178 71 -211 58 -27 63 -26 81 20 34 84 14
140 -67 195 -28 19 -57 35 -63 35 -6 0 -16 -17 -22 -39z"/>
<path d="M8785 5885 c-22 -8 -55 -30 -73 -50 -30 -32 -33 -41 -30 -88 3 -50 4
-52 35 -55 18 -2 49 6 71 17 43 22 68 68 79 147 5 41 4 44 -18 44 -13 -1 -42
-7 -64 -15z"/>
<path d="M3260 5847 c-178 -140 -272 -310 -256 -462 7 -71 57 -182 107 -238
l34 -38 72 36 c90 45 172 130 204 212 29 74 31 216 5 313 -22 82 -85 220 -100
220 -6 0 -36 -19 -66 -43z"/>
<path d="M3594 5865 c-12 -50 3 -207 27 -269 42 -113 143 -191 264 -203 l52
-6 13 53 c18 77 9 179 -23 232 -38 66 -119 136 -200 173 -109 50 -125 53 -133
20z"/>
<path d="M4653 5818 c-62 -109 -86 -199 -81 -306 3 -98 30 -165 93 -237 l36
-40 37 41 c126 139 129 332 9 548 -18 33 -38 61 -43 63 -6 2 -29 -29 -51 -69z"/>
<path d="M8500 5861 c-304 -100 -480 -293 -480 -526 0 -53 5 -81 25 -172 7
-28 37 -30 140 -8 199 42 336 185 390 407 18 73 33 328 19 328 -5 -1 -47 -13
-94 -29z"/>
<path d="M7860 5839 c-95 -61 -175 -147 -212 -225 -27 -58 -32 -79 -31 -143 0
-63 6 -88 31 -143 23 -50 36 -68 50 -68 35 0 160 70 193 107 53 62 82 137 87
229 5 102 -25 284 -47 284 -4 0 -36 -18 -71 -41z"/>
<path d="M7330 5849 c-34 -14 -90 -69 -90 -89 0 -20 54 -72 99 -95 61 -30 175
-2 261 64 l24 19 -34 31 c-80 71 -186 99 -260 70z"/>
<path d="M4171 5731 c-22 -40 -60 -193 -67 -263 -12 -140 24 -248 112 -334 52
-51 138 -95 215 -109 32 -6 36 -3 61 37 51 83 71 147 71 234 1 72 -3 89 -31
147 -55 111 -163 212 -299 281 -50 25 -53 25 -62 7z"/>
<path d="M2732 5668 c-7 -18 -16 -67 -19 -109 -5 -67 -3 -83 19 -131 26 -57
73 -102 119 -113 24 -6 28 -2 49 46 28 66 23 128 -17 200 -24 45 -114 139
-132 139 -4 0 -12 -15 -19 -32z"/>
<path d="M1165 5646 c-96 -97 -117 -209 -54 -298 l20 -27 35 21 c70 41 111
126 100 207 -8 60 -35 141 -47 141 -5 0 -29 -20 -54 -44z"/>
<path d="M7068 5642 l-37 -17 18 -42 c27 -57 67 -77 144 -70 33 3 64 10 69 15
15 15 -45 96 -86 116 -43 20 -61 20 -108 -2z"/>
<path d="M570 5616 c0 -15 39 -92 75 -146 76 -115 167 -170 282 -170 l65 0 -7
38 c-22 122 -136 225 -296 267 -50 14 -119 20 -119 11z"/>
<path d="M8820 5606 c-78 -18 -104 -30 -148 -71 -49 -44 -72 -90 -72 -144 0
-35 4 -42 24 -47 14 -3 49 1 79 10 65 19 115 65 151 138 27 57 44 129 30 127
-5 0 -34 -6 -64 -13z"/>
<path d="M1411 5565 c-35 -8 -66 -17 -69 -19 -8 -9 77 -113 146 -177 42 -39
93 -75 141 -98 72 -34 81 -36 181 -36 89 0 113 4 158 24 60 27 61 31 9 120
-57 96 -157 165 -275 190 -71 15 -212 13 -291 -4z"/>
<path d="M7360 5492 c0 -87 29 -147 86 -179 58 -33 80 -30 94 13 18 54 -2 114
-56 163 -34 32 -100 71 -120 71 -2 0 -4 -31 -4 -68z"/>
<path d="M275 5543 c-56 -8 -190 -57 -214 -79 -10 -9 81 -77 148 -111 69 -35
80 -38 160 -38 75 0 92 3 131 26 25 15 53 36 62 46 17 19 17 21 -17 61 -59 68
-174 109 -270 95z"/>
<path d="M6865 5490 c-30 -12 -64 -53 -74 -87 -8 -27 -6 -32 15 -42 50 -22
101 -14 143 24 48 43 71 92 50 106 -17 11 -107 11 -134 -1z"/>
<path d="M7140 5438 c0 -30 30 -86 56 -107 31 -24 102 -29 110 -7 8 22 -22 83
-50 101 -37 24 -116 33 -116 13z"/>
<path d="M1324 5376 c-45 -20 -74 -62 -74 -107 l0 -39 43 0 c23 0 53 7 66 16
26 19 60 87 61 122 0 18 -5 22 -32 22 -18 -1 -47 -7 -64 -14z"/>
<path d="M3564 5366 c-22 -7 -55 -21 -71 -31 -55 -33 -92 -127 -79 -199 6 -33
10 -35 63 -46 43 -9 65 -9 99 0 83 23 149 125 156 240 l3 45 -65 2 c-36 1 -83
-4 -106 -11z"/>
<path d="M560 5291 c-79 -24 -150 -92 -200 -192 -25 -49 -29 -64 -18 -70 32
-21 179 1 249 37 101 51 169 206 99 225 -33 9 -99 9 -130 0z"/>
<path d="M8590 5271 c-84 -30 -176 -144 -157 -195 6 -14 79 -36 121 -36 54 0
133 40 185 93 56 58 107 134 96 145 -4 4 -48 8 -98 10 -71 2 -105 -2 -147 -17z"/>
<path d="M150 5249 c-51 -32 -123 -120 -108 -134 2 -3 29 -9 58 -15 93 -18
162 5 205 67 34 51 32 71 -10 89 -49 20 -104 17 -145 -7z"/>
<path d="M3841 5201 c-12 -8 -9 -19 14 -66 55 -113 127 -168 222 -168 29 0 65
6 81 12 28 12 29 14 20 53 -19 86 -75 147 -154 167 -52 13 -163 14 -183 2z"/>
<path d="M878 5176 c-26 -7 -64 -25 -85 -39 -54 -37 -144 -159 -129 -174 12
-12 122 19 180 50 94 52 162 168 101 174 -11 1 -41 -4 -67 -11z"/>
<path d="M1060 5062 c-48 -24 -70 -60 -77 -124 -7 -69 5 -79 58 -44 56 37 81
81 75 130 -6 52 -16 59 -56 38z"/>
<path d="M8763 5024 c-31 -16 -73 -69 -73 -92 0 -19 56 -42 101 -42 52 0 115
35 153 85 l27 35 -28 12 c-48 19 -144 21 -180 2z"/>
<path d="M6813 5000 c-28 -11 -29 -33 -3 -75 25 -41 71 -60 134 -58 67 2 75
13 42 63 -45 69 -111 95 -173 70z"/>
<path d="M155 4988 c-26 -14 -85 -70 -85 -80 0 -13 68 -9 104 6 34 14 66 50
66 73 0 16 -57 17 -85 1z"/>
<path d="M6422 4963 c-31 -6 -37 -26 -23 -72 32 -110 134 -177 284 -188 66 -5
87 -3 87 7 0 25 -65 133 -105 174 -22 23 -58 50 -80 61 -40 19 -119 28 -163
18z"/>
<path d="M332 4914 c-102 -27 -216 -124 -276 -235 l-27 -48 47 -7 c67 -10 222
2 274 20 80 29 141 84 183 165 21 41 34 78 30 82 -11 11 -122 39 -153 38 -14
0 -49 -7 -78 -15z"/>
<path d="M5878 4908 l-48 -10 0 -48 c0 -233 139 -394 383 -444 85 -18 241 -26
253 -13 14 13 -32 171 -73 254 -51 103 -136 193 -221 235 -57 28 -76 32 -156
34 -50 2 -112 -2 -138 -8z"/>
<path d="M715 4879 c-22 -11 -51 -28 -65 -39 l-25 -19 45 -20 c95 -42 175 -36
232 17 23 21 25 28 15 40 -35 43 -136 54 -202 21z"/>
<path d="M2550 4847 c-38 -12 -120 -88 -120 -111 0 -21 73 -46 134 -46 44 0
60 5 86 26 17 15 37 39 45 54 13 25 12 29 -8 48 -20 18 -43 28 -87 37 -8 1
-31 -2 -50 -8z"/>
<path d="M7710 4793 c-18 -50 -25 -89 -25 -148 0 -71 4 -88 33 -147 53 -108
165 -193 324 -249 77 -26 83 -27 93 -11 6 10 10 84 10 172 0 138 -3 161 -23
212 -29 71 -107 159 -169 189 -47 23 -148 48 -194 49 -22 0 -28 -8 -49 -67z"/>
<path d="M8202 4789 c-43 -13 -48 -28 -24 -82 23 -53 55 -76 117 -88 41 -8
128 1 141 14 8 8 -41 89 -73 119 -48 46 -94 56 -161 37z"/>
<path d="M1542 4740 c-65 -64 -86 -119 -80 -203 6 -77 47 -162 113 -235 l47
-52 39 48 c98 117 132 250 89 350 -24 55 -110 142 -141 142 -9 0 -39 -22 -67
-50z"/>
<path d="M5490 4689 c-34 -71 -34 -165 -1 -228 31 -60 105 -130 179 -169 l61
-33 11 43 c6 24 13 49 16 57 11 32 4 169 -10 209 -31 85 -107 150 -196 167
-35 6 -36 6 -60 -46z"/>
<path d="M2845 4699 c-132 -46 -217 -132 -256 -261 -18 -60 -21 -86 -16 -196
2 -70 11 -146 18 -169 l14 -42 70 36 c230 118 345 294 314 483 -11 72 -53 170
-71 170 -7 -1 -40 -10 -73 -21z"/>
<path d="M8550 4628 c0 -78 23 -131 75 -177 45 -39 128 -79 181 -88 l37 -6 -8
59 c-9 73 -34 141 -69 187 -35 46 -117 87 -173 87 l-43 0 0 -62z"/>
<path d="M1205 4660 c-62 -41 -127 -115 -163 -189 l-37 -75 0 -130 c0 -109 4
-144 24 -206 26 -84 67 -180 76 -180 13 0 101 104 147 174 26 39 60 105 75
146 24 64 28 90 28 180 0 94 -3 111 -28 165 -29 63 -75 135 -86 135 -3 0 -19
-9 -36 -20z"/>
<path d="M5251 4616 c-33 -35 -31 -96 4 -142 22 -29 29 -33 42 -23 45 38 56
120 22 163 -25 32 -39 33 -68 2z"/>
<path d="M840 4523 c-79 -52 -116 -110 -126 -196 -8 -66 4 -187 17 -187 6 0
35 23 64 51 101 95 138 211 99 309 -18 45 -20 46 -54 23z"/>
<path d="M3198 4512 c-71 -76 -84 -184 -34 -284 29 -57 81 -128 95 -128 4 0
17 18 29 39 74 131 71 273 -6 354 -44 47 -56 49 -84 19z"/>
<path d="M8390 4470 c-40 -78 -19 -161 62 -242 l42 -42 13 33 c44 108 31 206
-35 260 -20 17 -42 31 -49 31 -7 0 -22 -18 -33 -40z"/>
<path d="M3393 4459 c7 -54 64 -115 125 -133 30 -10 29 15 -4 83 -27 53 -71
91 -108 91 -16 0 -18 -6 -13 -41z"/>
<path d="M6720 4446 c0 -53 33 -110 85 -146 42 -29 124 -64 132 -57 7 7 -30
112 -52 147 -28 44 -80 79 -130 87 -35 6 -35 5 -35 -31z"/>
<path d="M340 4431 c-159 -49 -258 -198 -285 -428 l-7 -63 39 0 c59 0 189 37
253 71 148 79 220 220 196 383 l-7 46 -82 -1 c-45 0 -93 -4 -107 -8z"/>
<path d="M7536 4400 c-38 -95 -3 -200 92 -277 29 -24 57 -43 61 -43 14 0 31
84 31 151 0 85 -28 142 -88 180 -62 39 -77 37 -96 -11z"/>
<path d="M5875 4347 c-8 -54 15 -116 56 -146 27 -20 100 -51 120 -51 5 0 9 28
9 63 0 103 -61 177 -147 177 -30 0 -32 -3 -38 -43z"/>
<path d="M7359 4351 c-24 -25 -29 -38 -29 -78 0 -72 11 -83 55 -59 64 35 87
83 65 140 -13 36 -53 34 -91 -3z"/>
<path d="M1833 4299 c-54 -27 -98 -77 -134 -153 -36 -76 -38 -100 -6 -90 131
42 236 146 237 237 0 23 -4 27 -27 27 -16 0 -47 -9 -70 -21z"/>
<path d="M2230 4274 c1 -52 30 -114 71 -148 35 -30 135 -79 149 -74 4 2 0 33
-9 70 -26 103 -92 175 -169 185 l-42 6 0 -39z"/>
<path d="M2037 4260 c-82 -97 -73 -267 20 -402 14 -21 29 -38 33 -38 15 0 72
142 80 198 9 64 -1 135 -24 181 -19 35 -65 91 -76 91 -5 0 -19 -13 -33 -30z"/>
<path d="M605 4156 c-41 -18 -82 -68 -95 -117 -13 -48 -9 -151 6 -156 15 -5
111 82 128 116 22 43 28 87 16 130 -12 45 -12 46 -55 27z"/>
</g>
</svg>
